<?xml version="1.0" encoding="UTF-8" standalone="no"?>
<!DOCTYPE svg PUBLIC "-//W3C//DTD SVG 1.1//EN" "http://www.w3.org/Graphics/SVG/1.1/DTD/svg11.dtd">
<svg width="100%" height="100%" viewBox="0 0 2495 2497" version="1.1" xmlns="http://www.w3.org/2000/svg" xmlns:xlink="http://www.w3.org/1999/xlink" xml:space="preserve" xmlns:serif="http://www.serif.com/" style="fill-rule:evenodd;clip-rule:evenodd;stroke-miterlimit:100;">
    <g>
        <path id="hair" d="M2064.83,536.947c37.271,-57.454 212.237,115.496 216.666,87.5c-123.891,-297.462 -289.55,-268.408 -404.166,-266.666c-40.121,-133.609 305.208,-270.067 304.166,-275c-1125.72,-289.371 -1847.51,260.675 -1762.5,670.833c-248.55,-163.754 -497.054,756.508 -395.833,508.333c86.838,-161.054 160.883,-228.695 205.646,-249.683c3.854,-5.7 7.546,-7.467 11.021,-4.483c-3.438,1.15 -7.129,2.658 -11.021,4.483c-42.958,63.608 -105.646,620.517 -105.646,620.517c0,-0 107.279,-258 139.446,-339.121c2.208,-8.396 8.512,-21.471 -0,-0c-25.846,98.175 -60.308,452.746 -18.613,489.121c0.863,4.425 90.755,-179.279 95.834,-279.167c-0.846,-1.854 70.833,41.667 70.833,41.667l158.333,791.666l-33.333,-358.333l83.333,333.333l-4.166,-229.166l87.5,291.666l-29.167,-758.333c126.496,-321.875 -85.758,-435.808 -58.333,-591.667c486.166,-403.22 1409.77,-339.404 1675,-79.166c11.65,-183.667 -278.434,-236.554 -275,-241.667c99.283,-53.483 309.262,64.146 304.166,66.667c75.538,-61.554 -249.562,-227.688 -254.166,-233.334" style="fill:#ff0;fill-rule:nonzero;"/>
        <path d="M2064.83,536.947c37.271,-57.454 212.237,115.496 216.666,87.5c-123.891,-297.462 -289.55,-268.408 -404.166,-266.666c-40.121,-133.609 305.208,-270.067 304.166,-275c-1125.72,-289.371 -1847.51,260.675 -1762.5,670.833c-248.55,-163.754 -497.054,756.508 -395.833,508.333c86.838,-161.054 160.883,-228.695 205.646,-249.683c3.854,-5.7 7.546,-7.467 11.021,-4.483c-3.438,1.15 -7.129,2.658 -11.021,4.483c-42.958,63.608 -105.646,620.517 -105.646,620.517c0,-0 107.279,-258 139.446,-339.121c2.208,-8.396 8.512,-21.471 -0,-0c-25.846,98.175 -60.308,452.746 -18.613,489.121c0.863,4.425 90.755,-179.279 95.834,-279.167c-0.846,-1.854 70.833,41.667 70.833,41.667l158.333,791.666l-33.333,-358.333l83.333,333.333l-4.166,-229.166l87.5,291.666l-29.167,-758.333c126.496,-321.875 -85.758,-435.808 -58.333,-591.667c486.166,-403.22 1409.77,-339.404 1675,-79.166c11.65,-183.667 -278.434,-236.554 -275,-241.667c99.283,-53.483 309.262,64.146 304.166,66.667c75.538,-61.554 -249.562,-227.688 -254.166,-233.334" style="fill:#ff0;fill-rule:nonzero;"/>
        <path d="M2064.83,536.947c37.271,-57.454 212.237,115.496 216.666,87.5c-123.891,-297.462 -289.55,-268.408 -404.166,-266.666c-40.121,-133.609 305.208,-270.067 304.166,-275c-1125.72,-289.371 -1847.51,260.675 -1762.5,670.833c-248.55,-163.754 -497.054,756.508 -395.833,508.333c86.838,-161.054 160.883,-228.695 205.646,-249.683c3.854,-5.7 7.546,-7.467 11.021,-4.483c-3.438,1.15 -7.129,2.658 -11.021,4.483c-42.958,63.608 -105.646,620.517 -105.646,620.517c0,-0 107.279,-258 139.446,-339.121c2.208,-8.396 8.512,-21.471 -0,-0c-25.846,98.175 -60.308,452.746 -18.613,489.121c0.863,4.425 90.755,-179.279 95.834,-279.167c-0.846,-1.854 70.833,41.667 70.833,41.667l158.333,791.666l-33.333,-358.333l83.333,333.333l-4.166,-229.166l87.5,291.666l-29.167,-758.333c126.496,-321.875 -85.758,-435.808 -58.333,-591.667c486.166,-403.22 1409.77,-339.404 1675,-79.166c11.65,-183.667 -278.434,-236.554 -275,-241.667c99.283,-53.483 309.262,64.146 304.166,66.667c75.538,-61.554 -249.562,-227.688 -254.166,-233.334" style="fill:url(#_Linear1);fill-rule:nonzero;"/>
        <path d="M2064.83,536.947c37.271,-57.454 212.237,115.496 216.666,87.5c-123.891,-297.462 -289.55,-268.408 -404.166,-266.666c-40.121,-133.609 305.208,-270.067 304.166,-275c-1125.72,-289.371 -1847.51,260.675 -1762.5,670.833c-248.55,-163.754 -497.054,756.508 -395.833,508.333c86.838,-161.054 160.883,-228.695 205.646,-249.683c3.854,-5.7 7.546,-7.467 11.021,-4.483c-3.438,1.15 -7.129,2.658 -11.021,4.483c-42.958,63.608 -105.646,620.517 -105.646,620.517c0,-0 107.279,-258 139.446,-339.121c2.208,-8.396 8.512,-21.471 -0,-0c-25.846,98.175 -60.308,452.746 -18.613,489.121c0.863,4.425 90.755,-179.279 95.834,-279.167c-0.846,-1.854 70.833,41.667 70.833,41.667l158.333,791.666l-33.333,-358.333l83.333,333.333l-4.166,-229.166l87.5,291.666l-29.167,-758.333c126.496,-321.875 -85.758,-435.808 -58.333,-591.667c486.166,-403.22 1409.77,-339.404 1675,-79.166c11.65,-183.667 -278.434,-236.554 -275,-241.667c99.283,-53.483 309.262,64.146 304.166,66.667c75.538,-61.554 -249.562,-227.688 -254.166,-233.334" style="fill:url(#_Linear2);fill-rule:nonzero;"/>
        <path id="face" d="M1337.44,2464.53c-321.829,0.013 -478.767,-216.558 -617.508,-407.987c-24.592,-33.925 -48.017,-66.246 -72.004,-97.092c-20.542,65.542 -50.83,94.837 -90.271,87.121c-65.396,-12.813 -123.917,-127.575 -146.042,-176.321c-42.012,-92.558 -65.421,-190.213 -58.254,-243.004c8.592,-51.417 35.558,-138.767 120.146,-149.654c69.558,-8.955 144.937,39.308 180.129,93.729c74.45,-194.738 18.192,-331.238 -23.267,-431.792c-24.25,-58.825 -43.404,-105.292 -31.258,-146.837l0.675,-2.3l1.612,-1.78c125.721,-138.458 320.6,-231.287 563.567,-268.445c233.596,-35.721 500.704,-19.05 772.45,48.229l6.396,1.587l1.308,6.459c15.317,75.604 15.684,125.279 16.034,173.316c0.808,110.529 1.575,214.929 198.2,628.888l0.579,1.504c2.491,8.375 5.033,16.812 7.596,25.317c27.687,91.787 59.062,195.82 43.95,310.5c-17.284,131.137 -92.78,256.47 -230.8,383.158c-0.622,0.567 -1.404,1.1 -2.348,1.6c-0.201,0.106 -0.407,0.204 -0.617,0.294c-299.573,127.798 -442.69,143.456 -623.885,163.285l-0.909,0.058c-5.196,0.113 -10.375,0.167 -15.479,0.167Z" style="fill:url(#_Linear3);fill-rule:nonzero;"/>
        <path d="M1337.44,2464.53c-321.829,0.013 -478.767,-216.558 -617.508,-407.987c-24.592,-33.925 -48.017,-66.246 -72.004,-97.092c-20.542,65.542 -50.83,94.837 -90.271,87.121c-65.396,-12.813 -123.917,-127.575 -146.042,-176.321c-42.012,-92.558 -65.421,-190.213 -58.254,-243.004c8.592,-51.417 35.558,-138.767 120.146,-149.654c69.558,-8.955 144.937,39.308 180.129,93.729c74.45,-194.738 18.192,-331.238 -23.267,-431.792c-24.25,-58.825 -43.404,-105.292 -31.258,-146.837l0.675,-2.3l1.612,-1.78c125.721,-138.458 320.6,-231.287 563.567,-268.445c233.596,-35.721 500.704,-19.05 772.45,48.229l6.396,1.587l1.308,6.459c15.317,75.604 15.684,125.279 16.034,173.316c0.808,110.529 1.575,214.929 198.2,628.888l0.579,1.504c2.491,8.375 5.033,16.812 7.596,25.317c27.687,91.787 59.062,195.82 43.95,310.5c-17.284,131.137 -92.78,256.47 -230.8,383.158c-0.622,0.567 -1.404,1.1 -2.348,1.6c-0.201,0.106 -0.407,0.204 -0.617,0.294c-299.573,127.798 -442.69,143.456 -623.885,163.285l-0.909,0.058c-5.196,0.113 -10.375,0.167 -15.479,0.167Z" style="fill:url(#_Linear4);fill-rule:nonzero;"/>
    </g>
    <path d="M552.339,2045.3c1.767,0.495 3.541,0.919 5.32,1.268c39.441,7.716 69.729,-21.579 90.271,-87.121c13.579,17.462 26.978,35.396 40.513,53.83l13.891,361.167l-87.5,-291.666l4.166,229.166l-66.661,-266.644Zm-47.691,-30.116c11.764,11.321 24.126,20.483 36.856,26.169l27.496,295.591l-64.352,-321.76Zm1033.71,-2012.89l0.794,-0.014l0.107,-0.002c37.631,-4.769 113.092,-1.714 200.028,6.066c61.782,4.677 125.296,12.008 190.455,22.221c105.304,15.042 201.175,33.574 245.689,50.665c2.016,0.513 4.041,1.031 6.067,1.552c0.154,0.725 -7.178,4.292 -19.662,10.271c-49.438,25.895 -165.483,79.537 -239.267,150.297c-5.689,5.746 -11.008,11.57 -15.889,17.464c-15.113,18.875 -28.31,42.519 -31.93,64.753c-1.202,9.345 -0.797,18.727 1.468,28.101c0.444,1.389 0.954,2.76 1.53,4.107c1.433,-0.022 2.873,-0.049 4.32,-0.079c22.878,-1.534 45.503,-1.677 62.246,-1.446c42.7,0.005 89.082,3.993 135.868,24.478c68.432,29.855 137.682,95.046 197.652,235.046l0.023,0.053l0.039,0.091l0.32,0.748l0.308,0.722l0.063,0.148l0.039,0.093c0.45,1.055 0.902,2.121 1.354,3.195l0.065,0.154l0.109,0.259l0.252,0.601l0.249,0.593l0.117,0.278l0.071,0.169l0.11,0.263l0.545,1.307c-0.162,2.21 -1.692,3.024 -3.553,3.168c-1.075,0.083 -2.573,-0.231 -4.405,-0.868c-3.781,-1.219 -8.775,-3.794 -14.723,-7.362c-19.454,-11.365 -46.312,-30.985 -52.777,-35.753c-36.685,-25.375 -79.208,-53.18 -109.258,-57.794c-0.686,-0.101 -1.37,-0.192 -2.049,-0.27c-0.75,-0.087 -1.484,-0.165 -2.204,-0.233c-4.838,-0.389 -9.298,-0.09 -13.297,1.018c-4.563,1.542 -9.113,4.701 -14.4,10.594c4.603,5.645 329.509,171.68 254.233,233.28l-0.014,0.016l-0,0l-0.002,0.002l-0.004,0.003l-0.009,0.009l-0.006,0.004l-0.003,0.003l-0.014,0.009l-0.011,0.006l-0.004,0.002l0.001,-0.001l-0.002,0.001l0.067,-0.054l0.011,-0.019l0.007,-0.019l0.001,-0.002c1.035,-3.67 -135.829,-80.497 -239.898,-80.497c-15.102,-0 -32.709,2.372 -46.801,6.535c-6.151,1.963 -12.023,4.411 -17.552,7.389c-0,0 -0.01,0.017 -0.01,0.017l-0.003,0.006l-0.006,0.012l-0.002,0.006l-0.004,0.013l-0.001,0.006l-0.003,0.018l-0.001,0.019l-0,0.005l0.001,0.014l0.001,0.007l0.002,0.013l0.002,0.007l0.006,0.02l0.002,0.003l0.013,0.03l0.003,0.006l0.02,0.032l0.005,0.007l0.025,0.033l0.002,0.002l0.028,0.031l0.036,0.035l0.011,0.01l0.056,0.048l0.015,0.011l0.049,0.037l0.024,0.018l0.05,0.034l0.027,0.018l0.06,0.037l0.024,0.015l0.091,0.054l0.016,0.009l0.084,0.046l0.035,0.019l0.074,0.038l0.04,0.021l0.082,0.041l0.038,0.018l0.126,0.06l0.129,0.059l0.222,0.098l0.05,0.022l0.248,0.103l0.013,0.006l0.261,0.104l0.055,0.022l0.272,0.106l0.395,0.148l0.076,0.027l0.353,0.128l0.154,0.055l0.31,0.109l0.174,0.06l0.338,0.116l0.162,0.055l0.515,0.172l0.041,0.014l0.521,0.171l0.199,0.065l0.389,0.126l0.232,0.074l0.398,0.127l0.231,0.073l0.496,0.157l0.153,0.048l0.029,0.009l1.087,0.338l0.191,0.058l1.11,0.341l1.521,0.462l0.494,0.149l1.17,0.353l0.837,0.251l0.78,0.234l2.994,0.896l0.48,0.144l1.294,0.388l1.027,0.308l0.801,0.24l0.384,0.115l0.069,0.021l0.129,0.039l1.324,0.398l0.697,0.211l0.236,0.071l0.215,0.065l0.828,0.25l1.163,0.353l0.284,0.086l0.121,0.037c1.006,0.306 2.036,0.62 3.095,0.945l0.705,0.216l0.441,0.136l0.509,0.157l0.291,0.09c0.532,0.164 1.069,0.33 1.617,0.5l0.324,0.1l0.487,0.153l0.466,0.144l0.771,0.241c38.679,12.093 102.072,34.456 153.998,72.141c0.813,0.59 1.622,1.183 2.426,1.778l0.178,0.132l0.067,0.05l0.157,0.116l0.249,0.185l0.175,0.13l0.147,0.11l0.196,0.146l0.165,0.124l0.138,0.103l0.246,0.185l0.215,0.161l0.093,0.071l0.091,0.068l0.427,0.322l0.152,0.115l0.026,0.02c0.242,0.183 0.484,0.367 0.726,0.551l0.597,0.456l0.128,0.099l0.043,0.032l0.09,0.07l0.379,0.29l0.226,0.175l0.062,0.047l0.068,0.053l0.282,0.218l0.356,0.276l0.049,0.038l0.028,0.023c20.088,15.612 38.063,33.681 51.662,54.528l0.013,0.02l0.023,0.035l0.253,0.389l0.202,0.313l0.03,0.047l0.027,0.042l0.169,0.261l0.283,0.444l0.025,0.039l0.012,0.018c0.49,0.77 0.974,1.543 1.453,2.321l0.022,0.036l0.05,0.08l0.248,0.405l0.141,0.232l0.048,0.079l0.056,0.092l0.165,0.271l0.198,0.33l0.064,0.107l0.04,0.065l0.104,0.174l0.283,0.476l0.052,0.087l0.015,0.025c0.304,0.513 0.606,1.028 0.905,1.544l0.024,0.043l0.077,0.133l0.239,0.415l0.094,0.165l0.056,0.096l0.083,0.148l0.158,0.276l0.138,0.245l0.082,0.144l0.066,0.118l0.102,0.181l0.19,0.34l0.099,0.176l0.04,0.073l0.056,0.1l0.281,0.51l0.075,0.135l0.012,0.022c0.138,0.252 0.276,0.504 0.413,0.757l0.023,0.041l0.106,0.198l0.225,0.416l0.057,0.107l0.055,0.103l0.112,0.21l0.147,0.277l0.093,0.176l0.087,0.162l0.091,0.174l0.098,0.187l0.066,0.126l0.101,0.193l0.078,0.149l0.061,0.118l0.055,0.106l0.247,0.479l0.066,0.128l0.112,0.219l0.159,0.312l0.062,0.123l0.092,0.18l0.087,0.173l0.048,0.094l0.14,0.28l0.146,0.289l0.163,0.33l0.122,0.246l0.033,0.066l0.097,0.197l0.112,0.229l0.04,0.082l0.084,0.173l0.175,0.358l0.24,0.498l0.059,0.123l0.01,0.021l0.097,0.203l0.136,0.286l0.033,0.068l0.05,0.106c0.248,0.526 0.494,1.052 0.739,1.583l0.024,0.053l0.028,0.061c0.253,0.551 0.503,1.104 0.75,1.658l0.015,0.033l0.013,0.03l0.172,0.385c0.125,0.287 0.251,0.574 0.377,0.861l0.208,0.481l0.005,0.012c5.672,13.163 9.628,27.278 11.441,42.407l0.002,0.014c0.053,0.445 0.104,0.891 0.154,1.337l0.036,0.326l0.038,0.359l0.002,0.016c0.047,0.441 0.092,0.882 0.135,1.325l0.004,0.035l0.003,0.038c0.043,0.441 0.084,0.882 0.124,1.324l0.036,0.409l0.019,0.236l0.005,0.051l0.003,0.042c0.037,0.434 0.072,0.87 0.105,1.306l0.002,0.031l0.004,0.057l0.022,0.297l0.02,0.274l0.005,0.063l0.002,0.039c0.031,0.431 0.06,0.863 0.087,1.296l0.003,0.052l0.004,0.071l0.015,0.236l0.019,0.322l0.004,0.067l0.001,0.03c0.013,0.218 0.025,0.437 0.037,0.655l0,0.012l0.002,0.039l0.022,0.406l0.008,0.182l0.004,0.071l0.004,0.073l0.009,0.186l0.017,0.386l0.003,0.055l0.001,0.016c0.009,0.217 0.018,0.434 0.027,0.65l0.002,0.035l0.003,0.081l0.012,0.317l0.008,0.217l0.003,0.087l0.003,0.067l0.005,0.143l0.016,0.487l0,0.008c0.007,0.216 0.013,0.432 0.019,0.648l0.002,0.056l0.002,0.096l0.007,0.254l0.006,0.259l0.002,0.097l0.001,0.056c0.005,0.215 0.01,0.43 0.014,0.646l0.008,0.497l0.002,0.142l0.001,0.076l0.002,0.097l0.002,0.205l0.004,0.31l0.001,0.099l0,0.041c0.002,0.214 0.004,0.428 0.005,0.642l0,0.029l0,0.089l0.002,0.354l0,0.177l0,0.093l0,0.089l0.001,0.164l-0.001,0.38l-0,0.082l-0,0.023c-0.001,0.214 -0.002,0.428 -0.004,0.643l-0,0.05l-0.001,0.109l-0.003,0.286l-0.002,0.216l-0.001,0.106l-0.001,0.077l-0.002,0.127l-0.007,0.494l-0.001,0.025c-0.003,0.215 -0.007,0.43 -0.011,0.647l-0.002,0.069l-0.002,0.112l-0.005,0.235l-0.007,0.261l-0.002,0.114l-0.002,0.06c-0.005,0.215 -0.011,0.431 -0.017,0.647l-0.001,0.016l-0.002,0.069l-0.013,0.421l-0.005,0.147l-0.002,0.087l-0.004,0.105l-0.007,0.192l-0.011,0.319l-0.004,0.11l-0.002,0.042c-0.008,0.216 -0.017,0.432 -0.026,0.648l-0.001,0.037l-0.005,0.107l-0.014,0.335l-0.009,0.184l-0.004,0.103l-0.005,0.092l-0.007,0.155l-0.02,0.399l-0.004,0.084l-0.001,0.021c-0.011,0.216 -0.022,0.433 -0.034,0.652l-0.003,0.058l-0.007,0.117l-0.015,0.275l-0.014,0.227l-0.006,0.114l-0.005,0.076l-0.007,0.12l-0.033,0.538c-0,-0 -0.001,-0.001 -0.001,-0.001l-0,0.001c-12.255,-12.024 -41.754,-35.412 -42.361,-35.893l-0.228,-0.169l-0.424,-0.313l-0.54,-0.397l-0.46,-0.338l-0.502,-0.367l-0.49,-0.358l-0.441,-0.321l-0.507,-0.369l-0.677,-0.489l-0.243,-0.176l-0.647,-0.466l-0.32,-0.23l-0.652,-0.467l-0.309,-0.221l-0.676,-0.482l-0.263,-0.187l-0.728,-0.516l-0.136,-0.097c-1.178,-0.832 -2.362,-1.662 -3.563,-2.496l-0.033,-0.023l-0.885,-0.613l-0.066,-0.046c-58.364,-40.311 -134.075,-74.384 -221.633,-100.861l-0.04,-0.013c-2.773,-0.838 -5.559,-1.669 -8.356,-2.493l-0.073,-0.021l-1.33,-0.391l-0.118,-0.034c-2.327,-0.682 -4.662,-1.358 -7.005,-2.029l-0.017,-0.005l-1.309,-0.374l-0.191,-0.055l-1.266,-0.36l-0.194,-0.055l-1.306,-0.369l-0.014,-0.004c-1.852,-0.523 -3.708,-1.043 -5.57,-1.56l-0.206,-0.057l-1.217,-0.336l-0.301,-0.083l-1.198,-0.33l-0.276,-0.076l-1.252,-0.343l-0.038,-0.011l-1.41,-0.384c-0.482,-0.131 -0.963,-0.262 -1.444,-0.392l-1.334,-0.361l-0.136,-0.037l-1.189,-0.319l-0.364,-0.098l-1.126,-0.302l-0.412,-0.11l-1.123,-0.299l-0.373,-0.099l-1.181,-0.313l-0.069,-0.019l-1.394,-0.368c-0.486,-0.127 -0.971,-0.255 -1.457,-0.382l-1.149,-0.301l-0.403,-0.105l-1.065,-0.277l-0.51,-0.133l-1.031,-0.267l-0.535,-0.138l-1.031,-0.266l-0.502,-0.129l-1.076,-0.276l-0.14,-0.035l-1.337,-0.342l-1.1,-0.279l-0.415,-0.106l-0.988,-0.249l-0.612,-0.155l-0.943,-0.237l-0.66,-0.166l-0.922,-0.231l-0.682,-0.17l-0.912,-0.228l-0.696,-0.172l-0.904,-0.224l-0.726,-0.18l-0.765,-0.189l-0.821,-0.201l-0.789,-0.194l-0.825,-0.201l-0.801,-0.196c-3.882,-0.945 -7.766,-1.873 -11.667,-2.787c-189.569,-46.919 -435.979,-65.739 -674.879,-69.779c-32.178,2.901 -63.839,6.725 -94.907,11.476c-242.967,37.158 -437.846,129.987 -563.567,268.445l-1.612,1.78l-0.675,2.3c-12.146,41.545 7.008,88.012 31.258,146.837c41.459,100.554 97.717,237.054 23.267,431.792c-35.192,-54.421 -110.571,-102.684 -180.129,-93.729c-39.706,5.11 -66.715,27.068 -85.088,54.25c-20.966,-12.614 -49.119,-29.394 -48.587,-28.228c-5.079,99.888 -94.971,283.592 -95.834,279.167c-41.695,-36.375 -7.233,-390.946 18.613,-489.121c8.512,-21.471 2.208,-8.396 -0,-0c-32.167,81.121 -139.446,339.121 -139.446,339.121c0,-0 62.688,-556.909 105.646,-620.517c3.892,-1.825 7.583,-3.333 11.021,-4.483c-3.475,-2.984 -7.167,-1.217 -11.021,4.483c-44.763,20.988 -118.808,88.629 -205.646,249.683c-101.221,248.175 147.283,-672.087 395.833,-508.333l-0.188,-0.916l-0.001,0.002l0.188,0.913c-0.421,-0.277 -0.48,-0.582 -0.188,-0.913c-65.524,-320.646 361.438,-726.329 1088.79,-749.654l0.08,-0.003l0.073,-0.002c2.669,-0.085 5.344,-0.166 8.022,-0.24l0.097,-0.003l0.181,-0.005l1.302,-0.036l1.02,-0.028l0.233,-0.006l0.188,-0.005l0.732,-0.019l1.702,-0.044l0.118,-0.003l0.036,-0.001l0.318,-0.008c0.725,-0.018 1.45,-0.036 2.176,-0.054l2.177,-0.051l0.55,-0.012l0.23,-0.005l0.373,-0.009l1.026,-0.023l0.95,-0.02l0.398,-0.009l0.279,-0.005l0.555,-0.012l1.583,-0.032l0.334,-0.007l0.086,-0.002c0.851,-0.017 1.699,-0.033 2.546,-0.049l0.121,-0.002l0.46,-0.008l1.423,-0.026l0.505,-0.009l0.368,-0.007l0.521,-0.008Z" style="fill:url(#_Linear5);fill-rule:nonzero;"/>
    <g style="filter:url(#_Effect6);">
        <path d="M1624.38,1641.34l-2.225,-3.521c202.792,-128.308 428.904,-24.108 431.171,-23.042l-1.783,3.771c-2.234,-1.058 -226.342,-104.254 -427.163,22.792Z" style="fill-rule:nonzero;stroke:#c69c6d;stroke-width:8.33px;"/>
    </g>
    <g style="filter:url(#_Effect7);">
        <path d="M1390.96,1616.46c-2.234,-1.054 -226.342,-104.254 -427.163,22.791" style="fill:none;fill-rule:nonzero;stroke:#c69c6d;stroke-width:16.67px;"/>
    </g>
    <path d="M482.351,1486.48c15.246,-10.142 15.983,-10.017 15.983,-10.017l383.325,-255.154l24.342,69.584c0,-0 -180.933,173.712 -329.842,242.287c-0.016,0.013 0.196,-0.104 -0.058,0.029c-45.192,-37.108 -93.75,-46.729 -93.75,-46.729" style="fill:#231f20;fill-rule:nonzero;"/>
    <path d="M1403.73,1248.87c36.102,43.135 135.356,42.237 162.185,2.64c13.938,-20.571 52.727,-52.955 129.108,-52.955c282.275,-0 411.771,44.981 411.771,44.981c0,0 0.327,25.736 -1.011,47.932c-24.464,22.073 -23.115,47.722 -21.851,67.543c1.076,16.86 16.414,174.19 7.878,228.115c-9.895,62.515 -46.435,103.661 -60.065,115.224c-13.63,11.563 -48.205,38.163 -87.622,39.134c-50.478,1.244 -169.899,-7.378 -190.138,-12.792c-20.24,-5.415 -63.06,-40.249 -116.13,-102.797c-57.173,-67.385 -88.093,-160.326 -96.467,-273.676c-0.674,-9.128 0.793,-19.15 -8.622,-27.654c-17.083,-15.43 -45.97,-20.624 -66.074,-13.021c-20.104,7.604 -17.179,25.913 -17.179,25.913c4.327,14.648 9.871,67.209 9.865,113.168c-0.014,95.652 -51.211,199.283 -95.431,236.471c-13.632,11.464 -31.354,35.355 -67.787,36.785c-25.805,1.014 -131.454,4.578 -166.021,-0.791c-32.301,-5.017 -102.148,-23.034 -151.047,-101.339c-50.489,-80.852 -51.149,-134.142 -58.803,-197.423c-4.609,-38.098 -11.215,-78.511 -10.74,-84.469c2.631,-33.005 -10.921,-62.934 -35.47,-80.639c-2.146,-12.582 -7.931,-32.604 -9.754,-46.844c30.368,-10.404 110.644,-21.644 165.995,-23.057c61.78,-1.577 109.553,-11.17 262.588,4.032c34.461,3.423 92.294,33.381 110.822,55.519Zm181.668,185.285c-8.454,-61.12 -24.732,-103.069 11.214,-149.624c13.879,-17.975 42.247,-42.202 83.495,-47.218c56.531,-6.875 140.596,-5.966 244.366,11.507c57.743,9.723 95.317,69.752 104.862,90.435c18.908,40.976 12.527,83.847 16.61,122.964c4.908,47.004 16.599,150.843 -53.11,205.43c-8.164,6.393 -21.463,16.985 -53.865,27.693c-16.263,5.375 -96.999,2.166 -166.814,-5.448c-37.622,-4.103 -97.651,-67.189 -114.262,-92.701c-46.87,-71.988 -65.267,-110.77 -72.496,-163.038Zm-634.406,-130.697c5.117,-16.215 11.503,-34.567 30.979,-51.21c18.256,-15.601 20.38,-31.831 68.088,-32.999c53.247,-1.303 140.118,-10.179 243.888,7.294c44.428,7.481 86.766,48.209 96.31,68.892c9.544,20.683 27.447,104.888 23.857,142.792c-6.07,64.085 -5.866,117.991 -88.486,210.431c-9.043,10.117 -11.856,17.032 -48.479,25.473c-21.217,4.891 -128.088,0.721 -142.378,-0.028c-11.037,-0.579 -85.121,-18.461 -127.267,-83.192c-46.87,-71.987 -45.612,-110.426 -52.841,-162.694c-8.454,-61.12 -14.325,-91.003 -3.671,-124.759Z" style="fill:#231f20;"/>
    <path d="M1716.56,1959.54l-485.266,-0c-4.738,15.671 -7.759,30.596 -9.405,44.875l448.425,-0c12.105,-14.75 27.175,-29.733 46.246,-44.875" style="fill:#fff;fill-rule:nonzero;"/>
    <path d="M1648.13,2267.78c-11.791,7.708 -54.5,9.666 -108.666,2.708c-124.292,-16 -308.875,-79.292 -318.584,-229.5c-0.75,-11.667 -0.458,-23.833 1,-36.583l448.459,-0c-103.167,125.75 23.125,233.666 -22.209,263.375" style="fill:#231f20;fill-rule:nonzero;"/>
    <path d="M1291.62,2079.12c-21.637,-0 -42.616,1.646 -62.695,4.654c38.266,119.692 198.766,172.337 310.537,186.725c1.379,0.179 2.717,0.325 4.083,0.492c4.646,-11.659 7.134,-23.817 7.134,-36.33c-0,-85.904 -115.984,-155.541 -259.059,-155.541" style="fill:#f06e94;fill-rule:nonzero;"/>
    <path d="M1825.99,1233.26c-291.442,0 -181.509,305.171 -181.509,305.171l344.505,0c-0,0 109.725,-305.171 -162.996,-305.171" style="fill:#fff;fill-rule:nonzero;"/>
    <path d="M1821.99,1289.76c-237.488,0 -147.904,248.675 -147.904,248.675l280.725,0c-0,0 89.412,-248.675 -132.821,-248.675" style="fill:#2ac3f5;fill-rule:nonzero;"/>
    <path d="M1814.82,1335.43c-155.313,0 -94.988,203 -94.988,203l183.192,0c0,0 53.438,-203 -88.204,-203" style="fill-rule:nonzero;"/>
    <path d="M1173.7,1233.26c-291.442,0 -181.508,305.171 -181.508,305.171l344.504,0c-0,0 109.725,-305.171 -162.996,-305.171" style="fill:#fff;fill-rule:nonzero;"/>
    <path d="M1169.7,1289.76c-237.488,0 -147.904,248.675 -147.904,248.675l280.725,0c-0,0 89.412,-248.675 -132.821,-248.675" style="fill:#2ac3f5;fill-rule:nonzero;"/>
    <path d="M1162.53,1335.43c-155.313,0 -94.988,203 -94.988,203l183.192,0c0,0 53.438,-203 -88.204,-203" style="fill-rule:nonzero;"/>
    <path d="M1204.2,1385.85c-10.355,-0 -18.75,18.991 -18.75,42.416c-0,23.425 8.395,42.417 18.75,42.417c10.354,-0 18.75,-18.992 18.75,-42.417c-0,-23.425 -8.396,-42.416 -18.75,-42.416" style="fill:#fff;fill-rule:nonzero;"/>
    <path d="M1856.49,1385.85c-10.355,-0 -18.75,18.991 -18.75,42.416c-0,23.425 8.395,42.417 18.75,42.417c10.354,-0 18.75,-18.992 18.75,-42.417c-0,-23.425 -8.396,-42.416 -18.75,-42.416" style="fill:#fff;fill-rule:nonzero;"/>
    <path id="Nose" d="M1411.55,1746.42c38.954,-81.616 170.708,-64.995 175.6,8.038c8.037,119.954 -84.446,135.921 -161.688,105.112" style="fill:none;fill-rule:nonzero;stroke:#020202;stroke-width:4.17px;stroke-miterlimit:10;"/>
    <defs>
        <linearGradient id="_Linear1" x1="0" y1="0" x2="1" y2="0" gradientUnits="userSpaceOnUse" gradientTransform="matrix(947.785,-791.042,791.042,947.785,359.775,1250.22)"><stop offset="0" style="stop-color:#dfcd00;stop-opacity:1"/><stop offset="1" style="stop-color:#ff0;stop-opacity:0.52"/></linearGradient>
        <linearGradient id="_Linear2" x1="0" y1="0" x2="1" y2="0" gradientUnits="userSpaceOnUse" gradientTransform="matrix(947.785,-791.042,791.042,947.785,359.775,1250.22)"><stop offset="0" style="stop-color:#dfcd00;stop-opacity:1"/><stop offset="1" style="stop-color:#ff0;stop-opacity:0.52"/></linearGradient>
        <linearGradient id="_Linear3" x1="0" y1="0" x2="1" y2="0" gradientUnits="userSpaceOnUse" gradientTransform="matrix(-1642.66,767.547,-767.547,-1642.66,1574.86,1416.43)"><stop offset="0" style="stop-color:#fdc689;stop-opacity:1"/><stop offset="0.56" style="stop-color:#f6c085;stop-opacity:1"/><stop offset="1" style="stop-color:#dcaa73;stop-opacity:1"/></linearGradient>
        <linearGradient id="_Linear4" x1="0" y1="0" x2="1" y2="0" gradientUnits="userSpaceOnUse" gradientTransform="matrix(-1642.66,767.547,-767.547,-1642.66,1574.86,1416.43)"><stop offset="0" style="stop-color:#fdc689;stop-opacity:1"/><stop offset="0.56" style="stop-color:#f6c085;stop-opacity:1"/><stop offset="1" style="stop-color:#dcaa73;stop-opacity:1"/></linearGradient>
        <linearGradient id="_Linear5" x1="0" y1="0" x2="1" y2="0" gradientUnits="userSpaceOnUse" gradientTransform="matrix(-1286.41,856.619,-856.619,-1286.41,1452.46,416.327)"><stop offset="0" style="stop-color:#ff0;stop-opacity:0.51"/><stop offset="1" style="stop-color:#ecbc00;stop-opacity:0.51"/></linearGradient>
        <filter id="_Effect6" filterUnits="userSpaceOnUse" x="990.169" y="804.536" width="1696.33" height="1645.4">
            <feGaussianBlur in="SourceGraphic" stdDeviation="8.00392"/>
        </filter>
        <filter id="_Effect7" filterUnits="userSpaceOnUse" x="35.1682" y="638.784" width="2281.65" height="1926.33">
            <feGaussianBlur in="SourceGraphic" stdDeviation="8.00392"/>
        </filter>
    </defs>
</svg>
