<?xml version="1.0" encoding="UTF-8" standalone="no"?><!DOCTYPE svg PUBLIC "-//W3C//DTD SVG 1.1//EN" "http://www.w3.org/Graphics/SVG/1.1/DTD/svg11.dtd"><svg width="50px" height="100%" viewBox="0 0 479 335" version="1.1" xmlns="http://www.w3.org/2000/svg" xmlns:xlink="http://www.w3.org/1999/xlink" xml:space="preserve" xmlns:serif="http://www.serif.com/" style="fill-rule:evenodd;clip-rule:evenodd;stroke-miterlimit:10;"><g id="web-dexter-icon" serif:id="Web Dexter Icon"><path d="M404.699,113.37c0,0 -1.079,29.539 2.451,33.07c2.96,2.96 6.563,10.427 6.563,14.983c0,4.557 -3.91,8.285 -8.688,8.285l-19.33,0c-4.778,0 -8.688,-3.728 -8.688,-8.285c0,-0.778 2.617,-13.722 5.937,-16.57c4.507,-3.866 3.077,-31.483 3.077,-31.483c0,-1.24 0.265,-2.42 0.745,-3.493c3.513,-1.529 5.485,-3.217 7.676,-5.371c5.832,-0.542 10.257,3.945 10.257,8.864Zm-56.296,0c0,0 -1.429,28.17 3.077,32.037c3.015,2.586 5.937,15.018 5.937,16.016c0,4.557 -3.91,8.285 -8.688,8.285l-19.33,0c-4.778,0 -8.687,-3.728 -8.687,-8.285c0,-9.512 5.695,-14.35 6.772,-15.916c3.043,-4.425 2.241,-32.137 2.241,-32.137c0,-4.919 4.441,-9.431 10.276,-8.862c2.903,2.871 4.57,3.703 7.668,5.395c0.473,1.066 0.734,2.238 0.734,3.467Z" style="fill:none;fill-rule:nonzero;stroke:#000;stroke-width:1px;"/><path d="M407.237,146.528c1.133,1.133 4.6,6.533 5.263,8.876c0,0 -2.598,-32.564 -7.956,-32.564c-0.009,1.832 -0.198,21.087 2.693,23.688Zm-77.419,-24.15c-4.983,0 -7.973,32.065 -7.973,32.065c0.783,-2.767 3.413,-6.38 4.783,-7.75c2.749,-2.75 3.19,-24.315 3.19,-24.315Zm48.14,-10.685l-21.475,0c-12.771,0 -23.22,-10.872 -23.22,-24.161l0,-47.696c0,-18.793 14.777,-34.17 32.838,-34.17l2.24,0c18.061,0 32.838,15.376 32.838,34.169l0,47.697c0,13.289 -10.45,24.161 -23.221,24.161Z" style="fill:none;fill-rule:nonzero;stroke:#000;stroke-width:1px;stroke-linejoin:round;stroke-miterlimit:2;"/><path d="M413.481,163.321l23.719,0.004c22.356,2.162 40.48,22.564 41.723,48.075c0,0 -0.03,75.649 -0.087,76.621c-1.41,26.197 -21.157,46.871 -44.747,46.871l-389.243,0c-24.492,0 -44.842,-22.286 -44.842,-49.87l-0.004,-234.98c0,-33.378 24.126,-44.531 43.484,-45.329c0.589,-0.031 181.836,-0.041 181.836,-0.041l0.081,0.007c20.179,3.329 35.689,20.767 35.689,41.6c0,0 0.59,87.21 0.59,87.213c0,17.72 14.926,28.081 32.214,29.795c0.033,0.003 0.064,0.008 0.092,0.015l26.953,0.004c0.9,3.658 4.36,6.402 8.46,6.402l19.33,0c4.097,0 7.556,-2.741 8.458,-6.396l20.051,0.004c0.903,3.652 4.361,6.392 8.457,6.392l19.33,0c4.094,0 7.55,-2.737 8.456,-6.387Zm22.967,9.981l-426.444,-0.08l0,111.8c0,21.778 15.506,39.87 34.842,39.87c0,0 389.243,0 389.243,0c18.59,0 33.65,-16.765 34.763,-37.434c0.047,-0.803 0.071,-75.793 0.071,-75.793c-1.02,-20.047 -14.843,-36.539 -32.475,-38.363Zm-188.527,114.97c1.3,0 4.9,0.5 4.9,-1.7c0,-1.8 -5.5,-14.4 -5.5,-40.1c0,-9.2 1,-28.3 7.1,-28.3c7.2,0 11.3,8.3 13,8.3c1.1,0 6,-9.5 6,-13.9c0,-4.7 -14.3,-9 -30.4,-9c-13.5,0 -27,3.6 -28,5.5c-1.5,2.8 -4.2,15.2 -4.2,18.3c0,2.8 0.5,2.4 1.4,2.4c1.7,0 14.2,-11.5 21.3,-11.5c2.5,0 2,1.8 2,4.8c0,3.7 -4.4,17.9 -4.4,40.2c0,29 4.4,25 6.3,25l10.5,0Zm97.1,-83.2c-1.7,0 -6.9,-1.8 -6.9,47.6c0,37.5 3,35.6 5.5,35.6l11.6,0c1,0 3.5,0.5 3.5,-1.2c0,-0.7 -3.7,-14.4 -3.7,-22c0,-5.6 7.301,-9.7 10.301,-9.7c5.799,0 13.8,20.3 13.8,31.6c0,1.6 3.099,1.3 4.899,1.3l11.301,0c2.099,0 2.499,-0.2 2.499,-1.3c0,-23.6 -18,-36.7 -18,-39.5c0,-2.8 15,-7.7 15,-23.7c0,-8.5 -4.7,-18.7 -23.3,-18.7l-26.5,0Zm-140.6,83.2c3.3,0 3.9,0.4 3.9,-3c0,-24.5 -15.6,-35.6 -15.6,-40.3c0,-5.5 13.4,-9.9 13.4,-34c0,-3.8 0.1,-6 -4.5,-5.9l-7.8,0c-1.2,0 -4.1,-0.8 -4.1,1.9c0,0.6 0.3,6 0.3,7.3c0,8.4 -4.6,20.9 -8.2,20.9c-2.1,0 -8,-6.1 -9.3,-23.3c-0.6,-7.4 -0.4,-6.5 -2.8,-6.8l-11,0c-2.3,0 -4.9,-0.4 -4.9,2.7c0,24.5 15.5,31 15.5,37.2c0,5.3 -19.6,15.8 -19.6,41.8c0,2 2.7,1.5 4.1,1.5l7.4,0c4.5,0 4,0 4.7,-5.3c2,-20.4 11.3,-26.5 13.1,-26.5c1.9,0 8.9,7.1 10.4,24.1l0.3,4.3c0.4,4 1.3,3.4 4.8,3.4l9.9,0Zm-61.8,0c1.2,0 3.7,0.4 3.7,-1.5c0,-1 -6.7,-17.9 -8.2,-17.9c-2.4,0 -8.5,6.6 -18.4,6.6c-8.4,0 -12.6,-5.8 -12.6,-13.8c0,-9.9 7.4,-13.6 12.5,-13.6c3.9,0 7.7,2 8.7,2c1.2,0 6.8,-16.3 6.8,-16.4c0,-1.7 -3.3,-2.1 -4.5,-2.1c-8.4,0 -15.5,4.7 -18.7,4.7c-2.8,0 -3.2,-3.6 -3.2,-5.7c0,-9.6 7.3,-13.7 14.2,-13.7c9.8,0 12.8,4.7 14.5,4.7c1.3,0 7.7,-14 7.7,-14.8c0,-2 -3.6,-1.7 -4.8,-1.7l-39.4,0c-2.9,0 -8.4,46.2 -8.4,59.6c0.5,20.3 -1.1,23.8 4.2,23.6l45.9,0Zm185.9,0c1.2,0 3.7,0.4 3.7,-1.5c0,-1 -6.7,-17.9 -8.2,-17.9c-2.4,0 -8.5,6.6 -18.399,6.6c-8.401,0 -12.601,-5.8 -12.601,-13.8c0,-9.9 7.4,-13.6 12.5,-13.6c3.9,0 7.7,2 8.7,2c1.2,0 6.8,-16.3 6.8,-16.4c0,-1.7 -3.3,-2.1 -4.5,-2.1c-8.4,0 -15.5,4.7 -18.699,4.7c-2.801,0 -3.201,-3.6 -3.201,-5.7c0,-9.6 7.3,-13.7 14.2,-13.7c9.8,0 12.8,4.7 14.501,4.7c1.299,0 7.7,-14 7.7,-14.8c0,-2 -3.601,-1.7 -4.801,-1.7l-39.4,0c-2.9,0 -8.4,46.2 -8.4,59.6c0.5,20.3 -1.1,23.8 4.2,23.6l45.9,0Zm-271.6,0c20.2,0 28.101,-14.5 28.101,-31.8c0,-37.5 -22.901,-51.4 -35.601,-51.4l-17,0c-1.7,0 -6.9,-1.8 -6.9,47.6c0,37.5 3,35.6 5.501,35.6l25.899,0Zm-15.8,-52.2c0,-6.3 1.401,-19.2 8.4,-19.2c6.501,0 19.3,10.8 19.3,35.5c0,18 -10.1,23.1 -15.499,23.1c-5.601,0 -12.201,-2.6 -12.201,-25.1l0,-14.3Zm316.3,7.5c-3,0 -3.1,-4 -3.1,-6.1c-0.1,-17.3 3.9,-20.6 13,-20.6c5.4,0 11.3,2.3 11.3,8.6c0,9.2 -17.799,18.1 -21.2,18.1Zm-263.7,-202c-0.9,0 -2.1,-0.1 -2.1,1.5c0,1.3 3.4,12.2 3.4,22.8c0,16.8 -7,34.4 -10.8,34.4c-3,0 -8.7,-16 -8.7,-38.3c0,-11.1 1.9,-17 1.9,-18.7c0,-1.5 -1.2,-1.7 -2.5,-1.7l-13,0c-1.099,0 -1.7,0.1 -1.7,1.3c0,1.3 1.8,6.1 1.8,19.4c0,23.8 -8.2,38 -11.3,38c-2.3,0 -8.3,-11.5 -8.3,-36.1c0,-13.2 2.9,-20.2 2.9,-21.2c0,-1.3 -1.3,-1.4 -2.3,-1.4l-12.4,0c-2.1,0 -3.999,-1.5 -3.999,25.9c0,34.3 19.599,59.7 21.499,59.7c4.4,0 14.6,-26.4 17.9,-26.4c3.3,0 13.5,26.4 17.9,26.4c1.9,0 24.6,-30.4 24.6,-68.9c0,-18.2 -3,-16.7 -5.6,-16.7l-9.2,0Zm71.5,83.2c1.2,0 3.7,0.4 3.7,-1.5c0,-1 -6.7,-17.9 -8.2,-17.9c-2.4,0 -8.5,6.6 -18.4,6.6c-8.4,0 -12.6,-5.8 -12.6,-13.8c0,-9.9 7.4,-13.6 12.5,-13.6c3.9,0 7.7,2 8.7,2c1.2,0 6.8,-16.3 6.8,-16.4c0,-1.7 -3.3,-2.1 -4.5,-2.1c-8.4,0 -15.5,4.7 -18.7,4.7c-2.8,0 -3.2,-3.6 -3.2,-5.7c0,-9.6 7.3,-13.7 14.2,-13.7c9.8,0 12.8,4.7 14.5,4.7c1.3,0 7.7,-14 7.7,-14.8c0,-2 -3.6,-1.7 -4.8,-1.7l-39.4,0c-2.9,0 -8.4,46.2 -8.4,59.6c0.5,20.3 -1.1,23.8 4.2,23.6l45.9,0Zm45.2,0c16.4,0 22.3,-9.5 22.3,-19.3c0,-17.2 -16.1,-25.3 -16.1,-28.8c0,-3.1 11.4,-9.5 11.4,-20.5c0,-6.4 -2.7,-14.6 -20.4,-14.6l-25.9,0c-1.7,0 -6.9,-1.8 -6.9,47.6c0,37.5 3,35.6 5.5,35.6l30.1,0Zm-9.6,-38.8c1.1,-0.6 2.9,-1.7 4.2,-1.7c2.7,0 11.5,10 11.5,17.1c0,7.8 -7.3,10.6 -14.5,10.6c-8.2,0 -12,-1.9 -12,-17.1c0,-3.3 1.6,-3.9 4.3,-5.4l6.5,-3.5Zm190.221,0.733c0,7.738 -10.665,14.012 -23.821,14.012c-13.156,0 -23.821,-6.274 -23.821,-14.012c0,-7.739 10.665,-14.013 23.821,-14.013c13.156,0 23.821,6.274 23.821,14.013Zm-49.891,-69.024c-9.836,11.968 -7.678,26.384 -7.888,27.486c-0.793,0.794 -1.114,6.371 -1.114,19.774c0,19.372 -2.917,35.076 -6.516,35.076c-3.598,0 -6.515,-15.704 -6.515,-35.076c0,-32.861 8.066,-47.194 22.033,-47.26Zm-143.73,57.991c-1.6,1.1 -4.2,2.2 -5.4,2.2c-2.8,0 -2.6,-2.6 -2.6,-4.6c0,-15.6 4.5,-19.9 14.4,-19.9c3.8,0 8,1.2 8,6c0,4.1 -4.2,9 -7.1,11.1l-7.3,5.2Zm198.25,-54.721c2.011,-9.273 8.905,-20.382 17.99,-20.948l0,0.001l0,0c4.092,-0.255 7.597,13.231 7.82,30.122c0.223,16.891 -2.922,30.732 -7.016,30.913c-4.083,0.181 -8.155,-12.995 -7.856,-35.352c-3.531,0 -4.865,12.187 -5.43,14.148c-0.054,-6.847 -2.03,-13.464 -5.508,-18.884Z" style="fill-rule:nonzero;"/></g></svg>