<?xml version="1.0" encoding="UTF-8" standalone="no"?><!DOCTYPE svg PUBLIC "-//W3C//DTD SVG 1.1//EN" "http://www.w3.org/Graphics/SVG/1.1/DTD/svg11.dtd"><svg width="50px" height="100%" viewBox="0 0 479 335" version="1.1" xmlns="http://www.w3.org/2000/svg" xmlns:xlink="http://www.w3.org/1999/xlink" xml:space="preserve" xmlns:serif="http://www.serif.com/" style="fill-rule:evenodd;clip-rule:evenodd;stroke-miterlimit:10;"><g id="web-dexter-logo" serif:id="Web Dexter Logo"><path d="M473.923,211.522c0,0 -0.027,75.33 -0.08,76.23c-1.261,23.42 -18.665,42.14 -39.754,42.14l-389.243,0c-21.914,0 -39.842,-20.19 -39.842,-44.87l0,-116.8l431.714,0.08c20.059,1.94 36.095,20.44 37.205,43.22Z" style="fill:#fff;fill-rule:nonzero;"/><path d="M0.004,285.022l-0.004,-234.98c0,-33.378 24.126,-44.531 43.484,-45.329c0.589,-0.031 181.836,-0.041 181.836,-0.041l0.081,0.007c20.179,3.329 35.689,20.767 35.689,41.6c0,0 0.59,87.21 0.59,87.213c0,17.72 14.926,28.081 32.214,29.795c0.033,0.003 0.064,0.008 0.092,0.015l143.214,0.023c22.356,2.162 40.48,22.564 41.723,48.075c0,0 -0.03,75.649 -0.087,76.621c-1.41,26.197 -21.157,46.871 -44.747,46.871l-389.243,0c-24.492,0 -44.842,-22.286 -44.842,-49.87Zm436.444,-111.72l-426.444,-0.08l0,111.8c0,21.778 15.506,39.87 34.842,39.87c0,0 389.243,0 389.243,0c18.59,0 33.65,-16.765 34.763,-37.434c0.047,-0.803 0.071,-75.793 0.071,-75.793c-1.02,-20.047 -14.843,-36.539 -32.475,-38.363Zm-188.527,114.97c1.3,0 4.901,0.5 4.901,-1.7c0,-1.8 -5.5,-14.4 -5.5,-40.1c0,-9.2 1,-28.3 7.1,-28.3c7.2,0 11.299,8.3 12.999,8.3c1.1,0 6,-9.5 6,-13.9c0,-4.7 -14.299,-9 -30.4,-9c-13.5,0 -27,3.6 -28,5.5c-1.5,2.8 -4.199,15.2 -4.199,18.3c0,2.8 0.499,2.4 1.399,2.4c1.701,0 14.2,-11.5 21.3,-11.5c2.5,0 2,1.8 2,4.8c0,3.7 -4.4,17.9 -4.4,40.2c0,29 4.4,25 6.3,25l10.5,0Zm97.1,-83.2c-1.699,0 -6.899,-1.8 -6.899,47.6c0,37.5 3,35.6 5.5,35.6l11.6,0c1,0 3.5,0.5 3.5,-1.2c0,-0.7 -3.7,-14.4 -3.7,-22c0,-5.6 7.3,-9.7 10.3,-9.7c5.8,0 13.8,20.3 13.8,31.6c0,1.6 3.1,1.3 4.899,1.3l11.301,0c2.1,0 2.499,-0.2 2.499,-1.3c0,-23.6 -18,-36.7 -18,-39.5c0,-2.8 15,-7.7 15,-23.7c0,-8.5 -4.699,-18.7 -23.299,-18.7l-26.501,0Zm-140.6,83.2c3.3,0 3.9,0.4 3.9,-3c0,-24.5 -15.6,-35.6 -15.6,-40.3c0,-5.5 13.401,-9.9 13.401,-34c0,-3.8 0.099,-6 -4.5,-5.9l-7.801,0c-1.199,0 -4.1,-0.8 -4.1,1.9c0,0.6 0.3,6 0.3,7.3c0,8.4 -4.599,20.9 -8.2,20.9c-2.099,0 -8,-6.1 -9.3,-23.3c-0.599,-7.4 -0.399,-6.5 -2.8,-6.8l-11,0c-2.3,0 -4.9,-0.4 -4.9,2.7c0,24.5 15.5,31 15.5,37.2c0,5.3 -19.6,15.8 -19.6,41.8c0,2 2.701,1.5 4.1,1.5l7.4,0c4.5,0 4,0 4.701,-5.3c1.999,-20.4 11.299,-26.5 13.099,-26.5c1.901,0 8.9,7.1 10.4,24.1l0.3,4.3c0.401,4 1.3,3.4 4.8,3.4l9.9,0Zm-61.8,0c1.2,0 3.7,0.4 3.7,-1.5c0,-1 -6.7,-17.9 -8.2,-17.9c-2.4,0 -8.499,6.6 -18.4,6.6c-8.4,0 -12.599,-5.8 -12.599,-13.8c0,-9.9 7.399,-13.6 12.5,-13.6c3.899,0 7.699,2 8.699,2c1.2,0 6.8,-16.3 6.8,-16.4c0,-1.7 -3.3,-2.1 -4.5,-2.1c-8.4,0 -15.499,4.7 -18.699,4.7c-2.8,0 -3.201,-3.6 -3.201,-5.7c0,-9.6 7.3,-13.7 14.2,-13.7c9.8,0 12.8,4.7 14.501,4.7c1.299,0 7.7,-14 7.7,-14.8c0,-2 -3.601,-1.7 -4.801,-1.7l-39.4,0c-2.9,0 -8.4,46.2 -8.4,59.6c0.5,20.3 -1.1,23.8 4.2,23.6l45.9,0Zm185.9,0c1.201,0 3.701,0.4 3.701,-1.5c0,-1 -6.701,-17.9 -8.201,-17.9c-2.399,0 -8.499,6.6 -18.399,6.6c-8.4,0 -12.6,-5.8 -12.6,-13.8c0,-9.9 7.4,-13.6 12.5,-13.6c3.9,0 7.7,2 8.7,2c1.2,0 6.799,-16.3 6.799,-16.4c0,-1.7 -3.299,-2.1 -4.5,-2.1c-8.399,0 -15.499,4.7 -18.699,4.7c-2.8,0 -3.2,-3.6 -3.2,-5.7c0,-9.6 7.3,-13.7 14.2,-13.7c9.8,0 12.8,4.7 14.5,4.7c1.3,0 7.7,-14 7.7,-14.8c0,-2 -3.6,-1.7 -4.8,-1.7l-39.401,0c-2.899,0 -8.399,46.2 -8.399,59.6c0.5,20.3 -1.101,23.8 4.2,23.6l45.899,0Zm-271.599,0c20.2,0 28.1,-14.5 28.1,-31.8c0,-37.5 -22.9,-51.4 -35.6,-51.4l-17,0c-1.7,0 -6.901,-1.8 -6.901,47.6c0,37.5 3,35.6 5.501,35.6l25.9,0Zm-15.8,-52.2c0,-6.3 1.4,-19.2 8.399,-19.2c6.501,0 19.3,10.8 19.3,35.5c0,18 -10.099,23.1 -15.499,23.1c-5.601,0 -12.2,-2.6 -12.2,-25.1l0,-14.3Zm316.3,7.5c-3,0 -3.101,-4 -3.101,-6.1c-0.099,-17.3 3.901,-20.6 13.001,-20.6c5.4,0 11.3,2.3 11.3,8.6c0,9.2 -17.8,18.1 -21.2,18.1Z"/><path d="M354.342,100.928c-12.961,0 -23.566,10.747 -23.566,23.883l0,13.865c0,13.136 10.605,23.883 23.566,23.883l25.758,0c12.962,0 23.566,-10.747 23.566,-23.883l0,-13.865c0,-13.136 -10.604,-23.883 -23.566,-23.883l-25.758,0Zm-260.62,-59.356c-0.9,0 -2.1,-0.1 -2.1,1.5c0,1.3 3.4,12.2 3.4,22.8c0,16.8 -7,34.4 -10.8,34.4c-3,0 -8.7,-16 -8.7,-38.3c0,-11.1 1.9,-17 1.9,-18.7c0,-1.5 -1.201,-1.7 -2.5,-1.7l-13,0c-1.1,0 -1.7,0.1 -1.7,1.3c0,1.3 1.8,6.1 1.8,19.4c0,23.8 -8.2,38 -11.301,38c-2.299,0 -8.299,-11.5 -8.299,-36.1c0,-13.2 2.9,-20.2 2.9,-21.2c0,-1.3 -1.3,-1.4 -2.3,-1.4l-12.4,0c-2.101,0 -4,-1.5 -4,25.9c0,34.3 19.599,59.7 21.5,59.7c4.399,0 14.599,-26.4 17.899,-26.4c3.301,0 13.5,26.4 17.901,26.4c1.9,0 24.6,-30.4 24.6,-68.9c0,-18.2 -3,-16.7 -5.6,-16.7l-9.2,0Zm71.499,83.2c1.2,0 3.701,0.4 3.701,-1.5c0,-1 -6.701,-17.9 -8.201,-17.9c-2.399,0 -8.499,6.6 -18.399,6.6c-8.4,0 -12.6,-5.8 -12.6,-13.8c0,-9.9 7.4,-13.6 12.5,-13.6c3.9,0 7.699,2 8.7,2c1.2,0 6.799,-16.3 6.799,-16.4c0,-1.7 -3.3,-2.1 -4.5,-2.1c-8.399,0 -15.499,4.7 -18.699,4.7c-2.8,0 -3.2,-3.6 -3.2,-5.7c0,-9.6 7.3,-13.7 14.199,-13.7c9.801,0 12.801,4.7 14.501,4.7c1.299,0 7.7,-14 7.7,-14.8c0,-2 -3.6,-1.7 -4.8,-1.7l-39.401,0c-2.899,0 -8.399,46.2 -8.399,59.6c0.5,20.3 -1.101,23.8 4.2,23.6l45.899,0Zm45.201,0c16.4,0 22.299,-9.5 22.299,-19.3c0,-17.2 -16.099,-25.3 -16.099,-28.8c0,-3.1 11.399,-9.5 11.399,-20.5c0,-6.4 -2.7,-14.6 -20.399,-14.6l-25.901,0c-1.7,0 -6.899,-1.8 -6.899,47.6c0,37.5 3,35.6 5.5,35.6l30.1,0Zm-9.6,-38.8c1.1,-0.6 2.9,-1.7 4.2,-1.7c2.7,0 11.499,10 11.499,17.1c0,7.8 -7.299,10.6 -14.499,10.6c-8.2,0 -12,-1.9 -12,-17.1c0,-3.3 1.6,-3.9 4.3,-5.4l6.5,-3.5Zm-3.4,-10.3c-1.6,1.1 -4.2,2.2 -5.401,2.2c-2.8,0 -2.599,-2.6 -2.599,-4.6c0,-15.6 4.5,-19.9 14.4,-19.9c3.8,0 8,1.2 8,6c0,4.1 -4.2,9 -7.1,11.1l-7.3,5.2Z" style="fill:#fff;fill-rule:nonzero;"/><path d="M404.699,113.37c0,0 -1.079,29.539 2.451,33.07c2.96,2.96 6.563,10.427 6.563,14.983c0,4.557 -3.91,8.285 -8.688,8.285l-19.33,0c-4.778,0 -8.688,-3.728 -8.688,-8.285c0,-0.778 2.617,-13.722 5.937,-16.57c4.507,-3.866 3.077,-31.483 3.077,-31.483c0,-12.794 18.678,-11.088 18.678,0Zm-56.296,0c0,0 -1.429,28.17 3.077,32.037c3.015,2.586 5.937,15.018 5.937,16.016c0,4.557 -3.91,8.285 -8.688,8.285l-19.33,0c-4.778,0 -8.687,-3.728 -8.687,-8.285c0,-9.512 5.695,-14.35 6.772,-15.916c3.043,-4.425 2.241,-32.137 2.241,-32.137c0,-11.782 18.678,-11.782 18.678,0Z" style="fill:#fff;fill-rule:nonzero;stroke:#000;stroke-width:1px;"/><path d="M407.237,146.528c1.133,1.133 4.6,6.533 5.263,8.876c0,0 -2.598,-32.564 -7.956,-32.564c-0.009,1.832 -0.198,21.087 2.693,23.688Zm-77.419,-24.15c-4.983,0 -7.973,32.065 -7.973,32.065c0.783,-2.767 3.413,-6.38 4.783,-7.75c2.749,-2.75 3.19,-24.315 3.19,-24.315Zm48.14,-10.685l-21.475,0c-12.771,0 -23.22,-10.872 -23.22,-24.161l0,-47.696c0,-18.793 14.777,-34.17 32.838,-34.17l2.24,0c18.061,0 32.838,15.376 32.838,34.169l0,47.697c0,13.289 -10.45,24.161 -23.221,24.161Z" style="fill:#fff;fill-rule:nonzero;stroke:#000;stroke-width:1px;stroke-linejoin:round;stroke-miterlimit:2;"/><path d="M391.042,86.705c0,7.738 -10.665,14.012 -23.821,14.012c-13.156,0 -23.821,-6.274 -23.821,-14.012c0,-7.739 10.665,-14.013 23.821,-14.013c13.156,0 23.821,6.274 23.821,14.013Zm-49.891,-69.024c-9.836,11.968 -7.678,26.384 -7.888,27.486c-0.793,0.794 -1.114,6.371 -1.114,19.774c0,19.372 -2.917,35.076 -6.516,35.076c-3.598,0 -6.515,-15.704 -6.515,-35.076c0,-32.861 8.066,-47.194 22.033,-47.26Zm54.52,3.27c2.011,-9.273 8.905,-20.382 17.99,-20.948l0,0.001l0,0c4.092,-0.255 7.597,13.231 7.82,30.122c0.223,16.891 -2.922,30.732 -7.016,30.913c-4.083,0.181 -8.155,-12.995 -7.856,-35.352c-3.531,0 -4.865,12.187 -5.43,14.148c-0.054,-6.847 -2.03,-13.464 -5.508,-18.884Z" style="fill-rule:nonzero;"/></g></svg>